<?xml version="1.0" encoding="utf-8"?>
<svg version="1.2" baseProfile="tiny" id="Layer_1" xmlns="http://www.w3.org/2000/svg" xmlns:xlink="http://www.w3.org/1999/xlink"
	 x="0px" y="0px" viewBox="0 0 560 560" overflow="visible" xml:space="preserve">
<g>
	<path d="M473,229.5c-9.6,0-16.6,4.8-21,14.4c-4.4,9.6-7,22.5-7.9,38.6h53.4c0-16.3-1.7-29.3-5-38.8
		C489.2,234.3,482.7,229.5,473,229.5z"/>
	<path d="M323.5,305c-3.8,1-7.1,2.7-9.9,5c-2.8,2.4-5,5.5-6.6,9.4s-2.4,8.9-2.4,15c0,10.3,2.7,17.9,8.1,22.8s13,7.4,22.8,7.4
		c6,0,12.7-0.8,19.8-2.4v-56.1c-6.7-1.8-13.3-2.7-19.8-2.7C331.3,303.5,327.3,304,323.5,305z"/>
	<path d="M183.4,233.9c-4.3,2.2-7.9,5.9-10.9,11.1c-3,5.2-5.3,12-6.9,20.5c-1.6,8.5-2.4,19-2.4,31.6c0,24.2,3.2,41.5,9.6,51.9
		c6.4,10.4,16.1,15.6,29.1,15.6c2.5,0,5.2-0.2,8.1-0.5c2.9-0.3,5.9-1,9.1-1.8V235.9c-6.5-3.6-13.4-5.4-20.8-5.4
		C192.6,230.6,187.6,231.7,183.4,233.9z"/>
	<path d="M280,8.5C130.1,8.5,8.5,130.1,8.5,280S130.1,551.5,280,551.5S551.5,429.9,551.5,280S429.9,8.5,280,8.5z M102.1,385H73.2
		V235.9H40.9v-23.5h61.2C102.1,212.4,102.1,385,102.1,385z M87.6,178.2c-11.4,0-20.7-9.2-20.7-20.7s9.2-20.7,20.7-20.7
		c11.4,0,20.7,9.2,20.7,20.7S99.1,178.2,87.6,178.2z M247.9,381.1c-6.3,2.7-13.4,4.9-21.5,6.6s-16.2,2.5-24.5,2.5
		c-24.2,0-41.7-7.7-52.6-23.2c-10.9-15.5-16.3-38.8-16.3-69.9c0-14.1,1.2-26.8,3.5-38.1c2.4-11.3,6-20.9,11.1-28.9
		c5-7.9,11.5-14.1,19.3-18.5s17.1-6.6,27.9-6.6c5.2,0,9.6,0.5,13.3,1.5s7.3,2.4,10.9,4.2v-80.6l28.9-5L247.9,381.1L247.9,381.1z
		 M383.7,382.1c-8.1,2.2-16.3,4-24.7,5.4c-8.4,1.3-16.6,2-24.7,2s-15.6-1-22.7-3s-13.2-5.3-18.5-9.7c-5.3-4.5-9.5-10.1-12.6-17
		c-3.1-6.8-4.7-15.2-4.7-25c0-9.2,1.4-17.2,4.2-24c2.8-6.8,6.7-12.5,11.6-17.1s10.8-8.1,17.5-10.4c6.7-2.4,14-3.5,21.8-3.5
		c7.4,0,15.6,0.9,24.5,2.7v-16.1c0-13-2.5-22.1-7.6-27.2c-5-5.2-12.3-7.7-21.7-7.7c-5.2,0-10,0.5-14.6,1.5s-9.5,2.6-14.6,4.9
		l-6-24.5c5.8-2.5,12-4.4,18.5-5.9s13.5-2.2,21.2-2.2c15.7,0,28.4,4.9,38.3,14.6c9.9,9.7,14.8,24.9,14.8,45.5L383.7,382.1
		L383.7,382.1z M527.5,306.2h-83.7c0.2,8.5,1,16.3,2.4,23.4c1.3,7.1,3.5,13.2,6.6,18.5c3,5.3,7.1,9.4,12.1,12.3s11.5,4.4,19.3,4.4
		c6.5,0,12.5-1,18-2.9s9.5-3.5,11.9-4.9l5.4,23.2c-2.9,2-7.8,4.2-14.6,6.6c-6.8,2.4-15,3.5-24.4,3.5c-12.3,0-22.7-2.2-31.1-6.7
		s-15.2-10.8-20.5-18.8c-5.3-8.1-9-17.7-11.3-28.9c-2.2-11.2-3.4-23.5-3.4-37c0-32.5,5.4-56.2,16.1-71.2c10.8-15,25-22.5,42.7-22.5
		c19.9,0,34,7.5,42.3,22.5c8.3,15,12.4,36.1,12.4,63.2c0,2.5,0,5,0,7.6C527.8,300.8,527.7,303.5,527.5,306.2z"/>
</g>
</svg>
